<svg width="24" height="24" viewBox="0 0 24 24" fill="none" xmlns="http://www.w3.org/2000/svg">
<path d="M12 21C9.61305 21 7.32387 20.0518 5.63604 18.364C3.94821 16.6761 3 14.3869 3 12C3 9.61305 3.94821 7.32387 5.63604 5.63604C7.32387 3.94821 9.61305 3 12 3C14.3869 3 16.6761 3.94821 18.364 5.63604C20.0518 7.32387 21 9.61305 21 12C21 14.3869 20.0518 16.6761 18.364 18.364C16.6761 20.0518 14.3869 21 12 21ZM7.5 8.625V14.25C7.5 14.5484 7.61853 14.8345 7.82951 15.0455C8.04048 15.2565 8.32663 15.375 8.625 15.375H9.75V17.0625C9.7498 17.1739 9.78268 17.2828 9.84448 17.3755C9.90627 17.4682 9.9942 17.5405 10.0971 17.5831C10.2 17.6258 10.3133 17.6369 10.4225 17.6151C10.5318 17.5934 10.6321 17.5396 10.7108 17.4608L12.7954 15.375H15.375C15.6734 15.375 15.9595 15.2565 16.1705 15.0455C16.3815 14.8345 16.5 14.5484 16.5 14.25V8.625C16.5 8.32663 16.3815 8.04048 16.1705 7.82951C15.9595 7.61853 15.6734 7.5 15.375 7.5H8.625C8.32663 7.5 8.04048 7.61853 7.82951 7.82951C7.61853 8.04048 7.5 8.32663 7.5 8.625Z" fill="white"/>
</svg>
