<svg width="24" height="24" viewBox="0 0 24 24" fill="none" xmlns="http://www.w3.org/2000/svg">
<path d="M11.9971 10.8016C12.9519 10.8016 13.8676 10.4223 14.5427 9.74715C15.2178 9.07202 15.5971 8.15634 15.5971 7.20156C15.5971 6.24678 15.2178 5.33111 14.5427 4.65598C13.8676 3.98085 12.9519 3.60156 11.9971 3.60156C11.0424 3.60156 10.1267 3.98085 9.45155 4.65598C8.77642 5.33111 8.39713 6.24678 8.39713 7.20156C8.39713 8.15634 8.77642 9.07202 9.45155 9.74715C10.1267 10.4223 11.0424 10.8016 11.9971 10.8016ZM7.19713 9.60156C7.19713 10.2381 6.94428 10.8485 6.49419 11.2986C6.0441 11.7487 5.43365 12.0016 4.79713 12.0016C4.16061 12.0016 3.55016 11.7487 3.10008 11.2986C2.64999 10.8485 2.39713 10.2381 2.39713 9.60156C2.39713 8.96504 2.64999 8.35459 3.10008 7.90451C3.55016 7.45442 4.16061 7.20156 4.79713 7.20156C5.43365 7.20156 6.0441 7.45442 6.49419 7.90451C6.94428 8.35459 7.19713 8.96504 7.19713 9.60156ZM1.78513 18.3928C1.58027 18.2763 1.42687 18.0869 1.35553 17.8624C1.1441 17.1776 1.14188 16.4452 1.34916 15.7592C1.55645 15.0731 1.96379 14.4645 2.51904 14.0113C3.07429 13.5582 3.75217 13.281 4.46586 13.2154C5.17956 13.1499 5.89659 13.2988 6.52513 13.6432C5.23316 14.9122 4.42466 16.5925 4.23913 18.394C4.21193 18.662 4.22193 18.9236 4.26913 19.1788C3.39356 19.1019 2.54557 18.8335 1.78513 18.3928ZM19.7251 19.1776C20.6006 19.101 21.4486 18.8331 22.2091 18.3928C22.4135 18.2761 22.5665 18.0867 22.6375 17.8624C22.8493 17.1775 22.8518 16.445 22.6446 15.7587C22.4375 15.0724 22.0302 14.4635 21.4749 14.0102C20.9195 13.5568 20.2415 13.2796 19.5276 13.214C18.8138 13.1484 18.0966 13.2974 17.4679 13.642C18.761 14.911 19.5704 16.5917 19.7563 18.394C19.7834 18.6557 19.7729 18.92 19.7251 19.1788M21.5971 9.60156C21.5971 10.2381 21.3443 10.8485 20.8942 11.2986C20.4441 11.7487 19.8337 12.0016 19.1971 12.0016C18.5606 12.0016 17.9502 11.7487 17.5001 11.2986C17.05 10.8485 16.7971 10.2381 16.7971 9.60156C16.7971 8.96504 17.05 8.35459 17.5001 7.90451C17.9502 7.45442 18.5606 7.20156 19.1971 7.20156C19.8337 7.20156 20.4441 7.45442 20.8942 7.90451C21.3443 8.35459 21.5971 8.96504 21.5971 9.60156ZM6.36193 19.4296C6.24328 19.3238 6.15131 19.1915 6.09355 19.0434C6.03578 18.8954 6.01384 18.7357 6.02953 18.5776C6.18217 17.1009 6.87678 15.7333 7.97912 14.7391C9.08146 13.7448 10.5132 13.1945 11.9977 13.1945C13.4822 13.1945 14.914 13.7448 16.0163 14.7391C17.1187 15.7333 17.8133 17.1009 17.9659 18.5776C17.9816 18.7357 17.9597 18.8954 17.9019 19.0434C17.8441 19.1915 17.7522 19.3238 17.6335 19.4296C16.0903 20.8294 14.0807 21.6038 11.9971 21.6016C9.91378 21.6047 7.90427 20.8301 6.36193 19.4296Z" fill="white"/>
</svg>
