<svg width="24" height="24" viewBox="0 0 24 24" fill="none" xmlns="http://www.w3.org/2000/svg">
<path d="M7.38101 4.61719H3.22716C2.95024 4.61719 2.76562 4.8018 2.76562 5.07873V17.0787C2.76562 17.3556 2.95024 17.5403 3.22716 17.5403H6.45793C9.22716 17.5403 10.1502 19.3864 10.1502 19.3864H11.0733V6.46334C11.0733 6.37103 10.1502 4.61719 7.38101 4.61719ZM8.30409 13.848H5.53486C5.07332 13.848 4.61178 13.3864 4.61178 12.9249C4.61178 12.4633 5.07332 12.0018 5.53486 12.0018H8.30409C8.76563 12.0018 9.22716 12.4633 9.22716 12.9249C9.22716 13.3864 8.76563 13.848 8.30409 13.848ZM8.30409 10.1556H5.53486C5.07332 10.1556 4.61178 9.69411 4.61178 9.23257C4.61178 8.77103 5.07332 8.3095 5.53486 8.3095H8.30409C8.76563 8.3095 9.22716 8.77103 9.22716 9.23257C9.22716 9.69411 8.76563 10.1556 8.30409 10.1556ZM12.9195 6.46334V19.3864H13.8425C13.8425 19.3864 14.7656 17.5403 17.5349 17.5403H20.7656C21.0425 17.5403 21.2272 17.3556 21.2272 17.0787V5.07873C21.2272 4.8018 21.0425 4.61719 20.7656 4.61719H16.6118C13.8425 4.61719 12.9195 6.37103 12.9195 6.46334ZM14.7656 12.9249C14.7656 12.4633 15.2272 12.0018 15.6887 12.0018H18.4579C18.9195 12.0018 19.381 12.4633 19.381 12.9249C19.381 13.3864 18.9195 13.848 18.4579 13.848H15.6887C15.2272 13.848 14.7656 13.3864 14.7656 12.9249ZM14.7656 9.23257C14.7656 8.77103 15.2272 8.3095 15.6887 8.3095H18.4579C18.9195 8.3095 19.381 8.77103 19.381 9.23257C19.381 9.69411 18.9195 10.1556 18.4579 10.1556H15.6887C15.2272 10.1556 14.7656 9.69411 14.7656 9.23257Z" fill="white"/>
</svg>
