<svg width="24" height="24" viewBox="0 0 24 24" fill="none" xmlns="http://www.w3.org/2000/svg">
<g clip-path="url(#clip0_4747_4866)">
<path d="M11 1C11 0.802219 11.0586 0.608879 11.1685 0.44443C11.2784 0.279981 11.4346 0.151809 11.6173 0.0761209C11.8 0.000433281 12.0011 -0.0193701 12.1951 0.0192152C12.3891 0.0578004 12.5673 0.153041 12.7071 0.292894C12.847 0.432746 12.9422 0.610929 12.9808 0.80491C13.0194 0.998891 12.9996 1.19996 12.9239 1.38268C12.8482 1.56541 12.72 1.72159 12.5556 1.83147C12.3911 1.94135 12.1978 2 12 2C11.7348 2 11.4804 1.89464 11.2929 1.70711C11.1054 1.51957 11 1.26522 11 1ZM3 7C3.19778 7 3.39112 6.94135 3.55557 6.83147C3.72002 6.72159 3.84819 6.56541 3.92388 6.38268C3.99957 6.19996 4.01937 5.99889 3.98079 5.80491C3.9422 5.61093 3.84696 5.43275 3.70711 5.29289C3.56725 5.15304 3.38907 5.0578 3.19509 5.01922C3.00111 4.98063 2.80004 5.00043 2.61732 5.07612C2.43459 5.15181 2.27841 5.27998 2.16853 5.44443C2.05865 5.60888 2 5.80222 2 6C2 6.26522 2.10536 6.51957 2.29289 6.70711C2.48043 6.89464 2.73478 7 3 7ZM7 3C7.19778 3 7.39112 2.94135 7.55557 2.83147C7.72002 2.72159 7.84819 2.56541 7.92388 2.38268C7.99957 2.19996 8.01937 1.99889 7.98079 1.80491C7.9422 1.61093 7.84696 1.43275 7.70711 1.29289C7.56725 1.15304 7.38907 1.0578 7.19509 1.01922C7.00111 0.98063 6.80004 1.00043 6.61732 1.07612C6.43459 1.15181 6.27841 1.27998 6.16853 1.44443C6.05865 1.60888 6 1.80222 6 2C6 2.26522 6.10536 2.51957 6.29289 2.70711C6.48043 2.89464 6.73478 3 7 3ZM17 3C17.1978 3 17.3911 2.94135 17.5556 2.83147C17.72 2.72159 17.8482 2.56541 17.9239 2.38268C17.9996 2.19996 18.0194 1.99889 17.9808 1.80491C17.9422 1.61093 17.847 1.43275 17.7071 1.29289C17.5673 1.15304 17.3891 1.0578 17.1951 1.01922C17.0011 0.98063 16.8 1.00043 16.6173 1.07612C16.4346 1.15181 16.2784 1.27998 16.1685 1.44443C16.0586 1.60888 16 1.80222 16 2C16 2.26522 16.1054 2.51957 16.2929 2.70711C16.4804 2.89464 16.7348 3 17 3ZM21 7C21.1978 7 21.3911 6.94135 21.5556 6.83147C21.72 6.72159 21.8482 6.56541 21.9239 6.38268C21.9996 6.19996 22.0194 5.99889 21.9808 5.80491C21.9422 5.61093 21.847 5.43275 21.7071 5.29289C21.5673 5.15304 21.3891 5.0578 21.1951 5.01922C21.0011 4.98063 20.8 5.00043 20.6173 5.07612C20.4346 5.15181 20.2784 5.27998 20.1685 5.44443C20.0586 5.60888 20 5.80222 20 6C20 6.26522 20.1054 6.51957 20.2929 6.70711C20.4804 6.89464 20.7348 7 21 7ZM10.69 19.883C10.4066 19.1754 10.2086 18.4365 10.1 17.682C8.72463 17.2303 7.5607 16.2934 6.82555 15.0463C6.09039 13.7992 5.83426 12.3271 6.105 10.905L9.6 14.4V15.2C9.60322 15.5851 9.74524 15.9562 10 16.245V12H8.8V10.4H10.4C10.6122 10.4 10.8157 10.3157 10.9657 10.1657C11.1157 10.0157 11.2 9.81217 11.2 9.6V8H12.8C13.2058 7.99826 13.5959 7.84235 13.8911 7.56385C14.1863 7.28534 14.3646 6.90506 14.39 6.5C15.3188 6.90996 16.1284 7.54889 16.743 8.357L18 7.833L19.08 8.283C18.448 7.07635 17.5183 6.05113 16.379 5.30455C15.2397 4.55796 13.9286 4.11476 12.57 4.01697C11.2114 3.91918 9.85027 4.17004 8.61579 4.74576C7.38131 5.32148 6.31435 6.20298 5.51607 7.30668C4.7178 8.41038 4.21466 9.69969 4.05439 11.0524C3.89411 12.405 4.082 13.7762 4.60024 15.0359C5.11848 16.2956 5.94989 17.402 7.01564 18.2503C8.08139 19.0986 9.34615 19.6606 10.69 19.883ZM7 21C6.80222 21 6.60888 21.0586 6.44443 21.1685C6.27998 21.2784 6.15181 21.4346 6.07612 21.6173C6.00043 21.8 5.98063 22.0011 6.01922 22.1951C6.0578 22.3891 6.15304 22.5673 6.29289 22.7071C6.43275 22.847 6.61093 22.9422 6.80491 22.9808C6.99889 23.0194 7.19996 22.9996 7.38268 22.9239C7.56541 22.8482 7.72159 22.72 7.83147 22.5556C7.94135 22.3911 8 22.1978 8 22C8 21.7348 7.89464 21.4804 7.70711 21.2929C7.51957 21.1054 7.26522 21 7 21ZM12 22C11.8022 22 11.6089 22.0586 11.4444 22.1685C11.28 22.2784 11.1518 22.4346 11.0761 22.6173C11.0004 22.8 10.9806 23.0011 11.0192 23.1951C11.0578 23.3891 11.153 23.5673 11.2929 23.7071C11.4327 23.847 11.6109 23.9422 11.8049 23.9808C11.9989 24.0194 12.2 23.9996 12.3827 23.9239C12.5654 23.8482 12.7216 23.72 12.8315 23.5556C12.9414 23.3911 13 23.1978 13 23C13 22.7348 12.8946 22.4804 12.7071 22.2929C12.5196 22.1054 12.2652 22 12 22ZM3 17C2.80222 17 2.60888 17.0586 2.44443 17.1685C2.27998 17.2784 2.15181 17.4346 2.07612 17.6173C2.00043 17.8 1.98063 18.0011 2.01922 18.1951C2.0578 18.3891 2.15304 18.5673 2.29289 18.7071C2.43275 18.847 2.61093 18.9422 2.80491 18.9808C2.99889 19.0194 3.19996 18.9996 3.38268 18.9239C3.56541 18.8482 3.72159 18.72 3.83147 18.5556C3.94135 18.3911 4 18.1978 4 18C4 17.7348 3.89464 17.4804 3.70711 17.2929C3.51957 17.1054 3.26522 17 3 17ZM1 11C0.802219 11 0.608879 11.0586 0.44443 11.1685C0.279981 11.2784 0.151809 11.4346 0.0761209 11.6173C0.000433281 11.8 -0.0193701 12.0011 0.0192152 12.1951C0.0578004 12.3891 0.153041 12.5673 0.292894 12.7071C0.432746 12.847 0.610929 12.9422 0.80491 12.9808C0.998891 13.0194 1.19996 12.9996 1.38268 12.9239C1.56541 12.8482 1.72159 12.72 1.83147 12.5556C1.94135 12.3911 2 12.1978 2 12C2 11.7348 1.89464 11.4804 1.70711 11.2929C1.51957 11.1054 1.26522 11 1 11ZM24 12.5V16.363C23.9485 18.1104 23.3379 19.7952 22.258 21.1698C21.178 22.5445 19.6856 23.5364 18 24C16.317 23.5457 14.8249 22.5617 13.7444 21.1938C12.6639 19.8258 12.0522 18.1465 12 16.404V12.5L18 10L24 12.5Z" fill="white"/>
</g>
<defs>
<clipPath id="clip0_4747_4866">
<rect width="24" height="24" fill="white"/>
</clipPath>
</defs>
</svg>
