<svg width="128" height="129" viewBox="0 0 128 129" fill="none" xmlns="http://www.w3.org/2000/svg">
<g clip-path="url(#clip0_4742_4854)">
<path d="M2.73375 63.7286C2.73075 74.5671 5.56275 85.1501 10.9478 94.4781L2.21875 126.349L34.8348 117.797C43.8559 122.708 53.9635 125.281 64.2347 125.282H64.2617C98.1693 125.282 125.771 97.6906 125.785 63.7771C125.792 47.3436 119.398 31.8906 107.781 20.2646C96.1658 8.63956 80.7183 2.23406 64.2593 2.22656C30.3478 2.22656 2.74825 29.8166 2.73425 63.7286" fill="url(#paint0_linear_4742_4854)"/>
<path d="M0.535 63.708C0.5315 74.9365 3.465 85.898 9.042 95.56L0 128.574L33.7855 119.715C43.0945 124.79 53.5755 127.466 64.2405 127.47H64.268C99.392 127.47 127.985 98.8865 128 63.759C128.006 46.735 121.382 30.7265 109.35 18.684C97.3165 6.643 81.3165 0.007 64.268 0C29.138 0 0.549 28.58 0.535 63.708ZM20.6555 93.896L19.394 91.8935C14.091 83.4615 11.292 73.7175 11.296 63.712C11.307 34.5145 35.069 10.76 64.288 10.76C78.438 10.766 91.736 16.282 101.738 26.29C111.739 36.299 117.243 49.604 117.24 63.755C117.227 92.9525 93.464 116.71 64.268 116.71H64.247C54.7405 116.705 45.417 114.152 37.286 109.327L35.351 108.18L15.302 113.437L20.6555 93.896Z" fill="url(#paint1_linear_4742_4854)"/>
<path d="M48.3378 37.0776C47.1448 34.4261 45.8893 34.3726 44.7548 34.3261C43.8258 34.2861 42.7638 34.2891 41.7028 34.2891C40.6408 34.2891 38.9153 34.6886 37.4568 36.2811C35.9968 37.8751 31.8828 41.7271 31.8828 49.5616C31.8828 57.3961 37.5893 64.9681 38.3848 66.0316C39.1813 67.0931 49.4013 83.6851 65.5873 90.0681C79.0393 95.3726 81.7768 94.3176 84.6963 94.0516C87.6163 93.7866 94.1183 90.2006 95.4448 86.4821C96.7723 82.7641 96.7723 79.5771 96.3743 78.9111C95.9763 78.2476 94.9143 77.8491 93.3218 77.0531C91.7293 76.2571 83.8998 72.4041 82.4403 71.8726C80.9803 71.3416 79.9188 71.0766 78.8568 72.6711C77.7948 74.2631 74.7453 77.8491 73.8158 78.9111C72.8873 79.9756 71.9578 80.1081 70.3658 79.3116C68.7723 78.5126 63.6438 76.8331 57.5593 71.4086C52.8253 67.1876 49.6293 61.9751 48.7003 60.3806C47.7713 58.7886 48.6008 57.9256 49.3993 57.1321C50.1148 56.4186 50.9923 55.2726 51.7893 54.3431C52.5833 53.4131 52.8483 52.7496 53.3793 51.6876C53.9108 50.6246 53.6448 49.6946 53.2473 48.8981C52.8483 48.1016 49.7538 40.2261 48.3378 37.0776Z" fill="white"/>
</g>
<defs>
<linearGradient id="paint0_linear_4742_4854" x1="6180.54" y1="12414.5" x2="6180.54" y2="2.22656" gradientUnits="userSpaceOnUse">
<stop stop-color="#1FAF38"/>
<stop offset="1" stop-color="#60D669"/>
</linearGradient>
<linearGradient id="paint1_linear_4742_4854" x1="6400" y1="12857.4" x2="6400" y2="0" gradientUnits="userSpaceOnUse">
<stop stop-color="#F9F9F9"/>
<stop offset="1" stop-color="white"/>
</linearGradient>
<clipPath id="clip0_4742_4854">
<rect width="128" height="129" fill="white"/>
</clipPath>
</defs>
</svg>
