<svg width="30" height="30" viewBox="0 0 30 30" fill="none" xmlns="http://www.w3.org/2000/svg">
<rect width="30" height="30" rx="8" fill="#17191D"/>
<path d="M17.8095 18.6905H12.5238C12.2902 18.6905 12.0661 18.5977 11.9009 18.4325C11.7357 18.2672 11.6429 18.0432 11.6429 17.8095V16.4881H12.5238V17.8095H17.8095V16.4881H18.6905V17.8095C18.6905 18.0432 18.5977 18.2672 18.4325 18.4325C18.2672 18.5977 18.0432 18.6905 17.8095 18.6905ZM9 14.7262H21.3333V15.6071H9V14.7262ZM18.6905 13.8452H17.8095V12.5238H12.5238V13.8452H11.6429V12.5238C11.6429 12.2902 11.7357 12.0661 11.9009 11.9009C12.0661 11.7357 12.2902 11.6429 12.5238 11.6429H17.8095C18.0432 11.6429 18.2672 11.7357 18.4325 11.9009C18.5977 12.0661 18.6905 12.2902 18.6905 12.5238V13.8452ZM21.3333 12.5238H20.4524V9.88095H17.8095V9H21.3333V12.5238ZM9.88095 12.5238H9V9H12.5238V9.88095H9.88095V12.5238ZM12.5238 21.3333H9V17.8095H9.88095V20.4524H12.5238V21.3333ZM21.3333 21.3333H17.8095V20.4524H20.4524V17.8095H21.3333V21.3333Z" fill="#4ED634"/>
</svg>
