<svg width="20" height="20" viewBox="0 0 20 20" fill="none" xmlns="http://www.w3.org/2000/svg">
<path d="M17.2582 6.77684L17.0532 7.24851C17.0212 7.32531 16.9671 7.39092 16.8979 7.43707C16.8286 7.48321 16.7473 7.50784 16.6641 7.50784C16.5808 7.50784 16.4995 7.48321 16.4302 7.43707C16.361 7.39092 16.3069 7.32531 16.2749 7.24851L16.0699 6.77684C15.7095 5.94244 15.0494 5.27344 14.2199 4.90184L13.5874 4.61934C13.5107 4.58404 13.4457 4.52748 13.4001 4.45636C13.3545 4.38524 13.3303 4.30255 13.3303 4.21809C13.3303 4.13362 13.3545 4.05093 13.4001 3.97981C13.4457 3.9087 13.5107 3.85214 13.5874 3.81684L14.1849 3.551C15.0352 3.16882 15.7066 2.47507 16.0607 1.61267L16.2716 1.10351C16.3025 1.02463 16.3565 0.95692 16.4266 0.909193C16.4966 0.861465 16.5793 0.835937 16.6641 0.835938C16.7488 0.835937 16.8316 0.861465 16.9016 0.909193C16.9716 0.95692 17.0256 1.02463 17.0566 1.10351L17.2674 1.61184C17.6211 2.4744 18.2922 3.16845 19.1424 3.551L19.7407 3.81767C19.8172 3.85307 19.882 3.90962 19.9274 3.98065C19.9728 4.05168 19.9969 4.13421 19.9969 4.2185C19.9969 4.3028 19.9728 4.38533 19.9274 4.45636C19.882 4.52739 19.8172 4.58394 19.7407 4.61934L19.1074 4.901C18.2781 5.27298 17.6183 5.94228 17.2582 6.77684ZM9.9974 1.67017C5.3949 1.67017 1.66407 5.40101 1.66407 10.0035C1.66272 11.0981 1.87766 12.1821 2.29653 13.1933C2.71541 14.2045 3.32997 15.123 4.1049 15.896L1.66407 18.3368H9.9974C14.5999 18.3368 18.3307 14.606 18.3307 10.0035C18.3307 9.66795 18.3113 9.33739 18.2724 9.01184L16.6174 9.20767C16.6485 9.46878 16.6641 9.73406 16.6641 10.0035C16.6641 11.7716 15.9617 13.4673 14.7114 14.7176C13.4612 15.9678 11.7655 16.6702 9.9974 16.6702H5.6874L6.4624 15.896L5.28324 14.7177C4.66308 14.0994 4.1713 13.3646 3.83621 12.5556C3.50113 11.7465 3.32934 10.8792 3.33074 10.0035C3.33048 8.98591 3.56317 7.98176 4.01098 7.068C4.4588 6.15424 5.10985 5.35512 5.91425 4.73187C6.71865 4.10862 7.65505 3.67778 8.6517 3.47238C9.64834 3.26697 10.6788 3.29244 11.6641 3.54684L12.0791 1.93267C11.4124 1.76101 10.7149 1.67017 9.9974 1.67017ZM7.4974 7.50351H5.83074V12.5035H7.4974V7.50351ZM14.1641 7.50351H12.4974V12.5035H14.1641V7.50351ZM10.8307 5.0035H9.16407V15.0035H10.8307V5.0035Z" fill="#BFBFBF"/>
</svg>
