<svg width="16" height="16" viewBox="0 0 16 16" fill="none" xmlns="http://www.w3.org/2000/svg">
<g clip-path="url(#clip0_4443_6268)">
<path d="M7.99813 15.4963C11.958 15.4963 15.1681 12.2861 15.1681 8.32625C15.1681 4.36637 11.958 1.15625 7.99813 1.15625C4.03824 1.15625 0.828125 4.36637 0.828125 8.32625C0.828125 12.2861 4.03824 15.4963 7.99813 15.4963Z" fill="#E7FF33"/>
<path d="M1.32031 10.1888V10.9212C1.39531 11.115 1.47906 11.3063 1.57031 11.4913V10.1888H1.32031ZM2.13781 11.5675V12.4475C2.23781 12.5888 2.34156 12.7275 2.45031 12.8612V11.5675H2.13781ZM3.22031 12.7175V13.6663C3.34156 13.775 3.46656 13.8788 3.59531 13.9788V12.7175H3.22031ZM4.55281 13.5912V14.6112C4.67531 14.6787 4.80031 14.7425 4.92781 14.8038V13.5912H4.55281ZM6.06406 14.1475V15.2275C6.18781 15.2625 6.31281 15.2938 6.43906 15.3225V14.1475H6.06406ZM7.83281 14.34V15.4913C7.88906 15.4925 7.94531 15.495 8.00281 15.495C8.07156 15.495 8.14031 15.4912 8.20781 15.49V14.34H7.83281ZM9.60156 14.1388V15.3138C9.72781 15.285 9.85281 15.2525 9.97656 15.2175V14.1388H9.60156ZM11.1091 13.575V14.7887C11.2366 14.7275 11.3616 14.6612 11.4841 14.5925V13.575H11.1091ZM12.4378 12.6937V13.9563C12.5664 13.8557 12.6915 13.7506 12.8128 13.6412V12.6937H12.4378ZM13.8891 11.54H13.5766V12.8337C13.6853 12.6987 13.7903 12.56 13.8891 12.4175V11.54ZM14.7016 10.1562H14.4516V11.4613C14.5428 11.2725 14.6266 11.0787 14.7016 10.8825V10.1562Z" fill="#8FC32B" fill-opacity="0.5"/>
<path d="M7.99813 14.8478C11.958 14.8478 15.1681 11.6377 15.1681 7.67781C15.1681 3.71793 11.958 0.507812 7.99813 0.507812C4.03824 0.507812 0.828125 3.71793 0.828125 7.67781C0.828125 11.6377 4.03824 14.8478 7.99813 14.8478Z" fill="#E7FF33"/>
<path d="M8 14.2109C11.6071 14.2109 14.5312 11.2868 14.5312 7.67969C14.5312 4.07258 11.6071 1.14844 8 1.14844C4.39289 1.14844 1.46875 4.07258 1.46875 7.67969C1.46875 11.2868 4.39289 14.2109 8 14.2109Z" fill="#759D2A"/>
<path d="M1.45361 7.92656C1.40736 7.06656 1.55611 6.19406 1.85611 5.37656C2.16861 4.56156 2.64736 3.80781 3.25111 3.16781C4.46361 1.88531 6.22361 1.14156 7.99736 1.13281C9.77111 1.14281 11.5324 1.88531 12.7424 3.16906C13.3474 3.80781 13.8249 4.56281 14.1374 5.37656C14.4386 6.19531 14.5874 7.06656 14.5399 7.92656H14.5149C14.5123 7.06865 14.3424 6.21948 14.0149 5.42656C13.6867 4.63453 13.2073 3.91403 12.6036 3.30531C11.9995 2.69724 11.2817 2.21391 10.4911 1.88281C9.70071 1.55276 8.85267 1.38281 7.99611 1.38281C7.13956 1.38281 6.29152 1.55276 5.50111 1.88281C4.7105 2.21391 3.99272 2.69724 3.38861 3.30531C2.78464 3.91382 2.30526 4.63438 1.97736 5.42656C1.6498 6.21948 1.47996 7.06865 1.47736 7.92656H1.45361Z" fill="#8FC32B"/>
<path d="M7.99813 0.507812C4.03813 0.507812 0.828125 3.71781 0.828125 7.67781C0.828125 11.6378 4.03813 14.8478 7.99813 14.8478C11.9581 14.8478 15.1681 11.6378 15.1681 7.67781C15.1681 3.71781 11.9581 0.507812 7.99813 0.507812ZM7.99813 14.2091C4.39062 14.2091 1.46688 11.2853 1.46688 7.67781C1.46688 4.06906 4.39062 1.14531 7.99813 1.14531C11.6056 1.14531 14.5294 4.06906 14.5294 7.67656C14.5294 11.2841 11.6056 14.2091 7.99813 14.2091Z" fill="#E7FF33"/>
<path d="M4.74813 2.67188L4.90687 3.16313L5.42438 2.96563V3.16313L5.00563 3.46687L5.16563 3.75937V3.95812L4.74813 3.65437L4.32938 3.95812V3.75937L4.48937 3.46687L4.07188 3.16313V2.96563L4.58812 3.16313L4.74813 2.67188ZM2.75063 5.49187L2.91063 5.98312L3.42688 5.78562V5.98312L3.00938 6.28688L3.16938 6.58062V6.77812L2.75063 6.47438L2.33313 6.77812V6.58062L2.49313 6.28688L2.07438 5.98312V5.78562L2.59188 5.98312L2.75063 5.49187ZM2.69188 8.96813L2.85188 9.45938L3.36813 9.26188V9.45938L2.95063 9.76313L3.11063 10.0569V10.2544L2.69188 9.95063L2.27438 10.2544V10.0569L2.43438 9.76313L2.01562 9.45938V9.26188L2.53313 9.45938L2.69188 8.96813ZM4.82437 11.7281L4.98438 12.2194L5.50062 12.0219V12.2194L5.08312 12.5231L5.24313 12.8156V13.0144L4.82437 12.7106L4.40687 13.0144V12.8156L4.56688 12.5231L4.14812 12.2194V12.0219L4.66563 12.2194L4.82437 11.7281ZM11.2506 2.67188L11.0919 3.16313L10.5744 2.96563V3.16313L10.9931 3.46687L10.8331 3.75937V3.95812L11.2506 3.65437L11.6694 3.95812V3.75937L11.5094 3.46687L11.9269 3.16313V2.96563L11.4106 3.16313L11.2506 2.67188ZM13.2481 5.49187L13.0881 5.98312L12.5719 5.78562V5.98312L12.9894 6.28688L12.8294 6.58062V6.77812L13.2481 6.47438L13.6656 6.77812V6.58062L13.5056 6.28688L13.9244 5.98312V5.78562L13.4069 5.98312L13.2481 5.49187ZM13.3069 8.96813L13.1469 9.45938L12.6306 9.26188V9.45938L13.0481 9.76313L12.8881 10.0569V10.2544L13.3069 9.95063L13.7244 10.2544V10.0569L13.5644 9.76313L13.9831 9.45938V9.26188L13.4656 9.45938L13.3069 8.96813ZM11.1744 11.7281L11.0144 12.2194L10.4981 12.0219V12.2194L10.9156 12.5231L10.7556 12.8156V13.0144L11.1744 12.7106L11.5919 13.0144V12.8156L11.4319 12.5231L11.8506 12.2194V12.0219L11.3331 12.2194L11.1744 11.7281Z" fill="#8FC32B"/>
<path d="M11.1763 11.525L11.335 12.0162H11.8525L11.4338 12.32L11.5938 12.8112L11.1763 12.5075L10.7575 12.8112L10.9175 12.32L10.5 12.0162H11.0163L11.1763 11.525ZM13.3088 8.76625L13.4675 9.2575H13.985L13.5662 9.56125L13.7263 10.0525L13.3088 9.74875L12.89 10.0525L13.05 9.56125L12.6325 9.2575H13.1488L13.3088 8.76625ZM13.25 5.29L13.4088 5.78125H13.9263L13.5075 6.085L13.6675 6.57625L13.25 6.2725L12.8313 6.57625L12.9913 6.085L12.5738 5.78125H13.09L13.25 5.29ZM11.2525 2.46875L11.4125 2.96H11.9288L11.5113 3.26375L11.6713 3.755L11.2525 3.45125L10.835 3.755L10.995 3.26375L10.5763 2.96H11.0938L11.2525 2.46875Z" fill="#E7FF33"/>
<path d="M8.00438 12.8125L8.16438 13.3038L8.68062 13.1062V13.3038L8.26313 13.6075L8.42313 13.9012V14.0988L8.00438 13.795L7.58687 14.0988V13.9012L7.74688 13.6075L7.32812 13.3038V13.1062L7.84562 13.3038L8.00438 12.8125Z" fill="#8FC32B"/>
<path d="M8.00438 12.5469L8.16438 13.0381H8.68062L8.26313 13.3419L8.42313 13.8331L8.00438 13.5294L7.58687 13.8331L7.74688 13.3419L7.32812 13.0381H7.84562L8.00438 12.5469Z" fill="#E7FF33"/>
<path d="M8.00438 1.60938L8.16438 2.10062L8.68062 1.90312V2.10062L8.26313 2.40437L8.42313 2.69813V2.89562L8.00438 2.59187L7.58687 2.89562V2.69813L7.74688 2.40437L7.32812 2.10062V1.90312L7.84562 2.10062L8.00438 1.60938Z" fill="#8FC32B"/>
<path d="M8.00563 1.41406L8.16563 1.90531H8.68188L8.26438 2.20906L8.42438 2.70031L8.00563 2.39656L7.58813 2.70031L7.74813 2.20906L7.32938 1.90531H7.84688L8.00563 1.41406ZM4.82437 11.5266L4.66563 12.0178H4.14812L4.56688 12.3216L4.40687 12.8128L4.82437 12.5091L5.24313 12.8128L5.08312 12.3216L5.50062 12.0178H4.98438L4.82437 11.5266ZM2.69188 8.76781L2.53313 9.25906H2.01562L2.43438 9.56281L2.27438 10.0541L2.69188 9.75031L3.11063 10.0541L2.95063 9.56281L3.36813 9.25906H2.85188L2.69188 8.76781ZM2.75063 5.29156L2.59188 5.78281H2.07438L2.49313 6.08656L2.33313 6.57781L2.75063 6.27406L3.16938 6.57781L3.00938 6.08656L3.42688 5.78281H2.91063L2.75063 5.29156ZM4.74813 2.47031L4.58812 2.96156H4.07188L4.48937 3.26531L4.32938 3.75656L4.74813 3.45281L5.16563 3.75656L5.00563 3.26531L5.42438 2.96156H4.90687L4.74813 2.47031Z" fill="#E7FF33"/>
<path d="M11.9022 6.02726C11.9022 5.98351 4.10469 6.02726 4.10469 6.02726L4.03469 6.23726V6.59601C4.03469 6.66101 4.08719 6.71351 4.15219 6.71351H11.8472C11.9122 6.71351 11.9647 6.66101 11.9647 6.59601V6.24726L11.9022 6.02726ZM11.9134 10.6898H4.13719L3.61719 10.951L3.62344 11.2873C3.62469 11.3235 3.65469 11.3535 3.69219 11.3535H12.3084C12.3447 11.3535 12.3759 11.3248 12.3772 11.2873L12.3834 10.9573L11.9134 10.6898Z" fill="#8FC32B"/>
<path d="M5.39313 9.66813H4.94562C4.87187 9.66813 4.81187 9.43563 4.81187 9.36188L5.52562 9.33938C5.52562 9.41313 5.46563 9.66813 5.39313 9.66813ZM5.54562 7.25437H4.79187C4.73562 7.25437 4.68687 7.21688 4.67062 7.16313L4.61188 6.67188H5.71562L5.66563 7.16313C5.65063 7.21688 5.60187 7.25437 5.54562 7.25437ZM4.79187 9.81688H5.54562C5.60187 9.81688 5.71313 9.85188 5.72813 9.90563C5.72813 9.90563 5.72437 10.1394 5.72437 10.2319C5.72437 10.3244 5.68688 10.3919 5.60313 10.3919H4.73438C4.65062 10.3919 4.61312 10.3169 4.61312 10.2319C4.61312 10.1469 4.60938 9.90812 4.60938 9.90812C4.62562 9.85437 4.73562 9.81688 4.79187 9.81688ZM11.2056 9.66813H10.7581C10.6844 9.66813 10.6244 9.43563 10.6244 9.36188L11.3381 9.33938C11.3381 9.41313 11.2794 9.66813 11.2056 9.66813ZM11.3581 7.25437H10.6044C10.5481 7.25437 10.4994 7.21688 10.4831 7.16313L10.4244 6.67188H11.5281L11.4781 7.16313C11.4631 7.21688 11.4144 7.25437 11.3581 7.25437ZM10.6044 9.81688H11.3581C11.4144 9.81688 11.5256 9.85188 11.5406 9.90563C11.5406 9.90563 11.5369 10.1394 11.5369 10.2319C11.5369 10.3244 11.4994 10.3919 11.4156 10.3919H10.5469C10.4631 10.3919 10.4256 10.3169 10.4256 10.2319C10.4256 10.1469 10.4219 9.90812 10.4219 9.90812C10.4381 9.85437 10.5481 9.81688 10.6044 9.81688ZM9.26812 9.66813H8.82063C8.74688 9.66813 8.68688 9.43563 8.68688 9.36188L9.40063 9.33938C9.40063 9.41313 9.34187 9.66813 9.26812 9.66813ZM9.42062 7.25437H8.66687C8.61062 7.25437 8.56187 7.21688 8.54562 7.16313L8.48687 6.67188H9.59062L9.54062 7.16313C9.52562 7.21688 9.47687 7.25437 9.42062 7.25437ZM8.66687 9.81688H9.42062C9.47687 9.81688 9.58812 9.85188 9.60312 9.90563C9.60312 9.90563 9.59937 10.1394 9.59937 10.2319C9.59937 10.3244 9.56187 10.3919 9.47812 10.3919H8.60938C8.52562 10.3919 8.48812 10.3169 8.48812 10.2319C8.48812 10.1469 8.48438 9.90812 8.48438 9.90812C8.50062 9.85437 8.61062 9.81688 8.66687 9.81688ZM7.33063 9.66813H6.88312C6.80937 9.66813 6.74937 9.43563 6.74937 9.36188L7.46312 9.33938C7.46312 9.41313 7.40438 9.66813 7.33063 9.66813ZM7.48312 7.25437H6.72937C6.67312 7.25437 6.62437 7.21688 6.60812 7.16313L6.54938 6.67188H7.65312L7.60313 7.16313C7.58813 7.21688 7.53937 7.25437 7.48312 7.25437ZM6.72937 9.81688H7.48312C7.53937 9.81688 7.65063 9.85188 7.66563 9.90563C7.66563 9.90563 7.66187 10.1394 7.66187 10.2319C7.66187 10.3244 7.62438 10.3919 7.54063 10.3919H6.67188C6.58812 10.3919 6.55062 10.3169 6.55062 10.2319C6.55062 10.1469 6.54688 9.90812 6.54688 9.90812C6.56312 9.85437 6.67312 9.81688 6.72937 9.81688Z" fill="#8FC32B"/>
<path d="M11.955 5.6925C11.955 5.64875 11.9325 5.6075 11.8988 5.5875L8.00125 3.375L4.09875 5.585C4.06125 5.6075 4.0375 5.64875 4.0375 5.6925L4.03125 6.23875C4.03125 6.3075 4.0875 6.36375 4.15625 6.36375H11.835C11.9038 6.36375 11.96 6.3075 11.96 6.23875L11.955 5.6925Z" fill="#E7FF33"/>
<path d="M10.9834 5.54281L8.00344 3.85156L5.02344 5.54281H10.9834Z" fill="#759D2A"/>
<path d="M9.88534 5.33563L8.00159 4.26562L6.11784 5.33563H9.88534ZM11.6753 10.2531H4.32784C4.25534 10.2531 4.18659 10.2844 4.13784 10.3381L3.63284 10.9019C3.59784 10.9406 3.62534 11.0019 3.67784 11.0019H12.3253C12.3766 11.0019 12.4041 10.9406 12.3703 10.9019L11.8641 10.3381C11.8166 10.2844 11.7466 10.2531 11.6753 10.2531ZM11.2053 9.43938H10.7578C10.6841 9.43938 10.6241 9.37938 10.6241 9.30563V7.30813C10.6241 7.23438 10.6841 7.17438 10.7578 7.17438H11.2053C11.2791 7.17438 11.3391 7.23438 11.3391 7.30813V9.30687C11.3391 9.38062 11.2791 9.43938 11.2053 9.43938ZM11.3591 7.02563H10.6053C10.5491 7.02563 10.5003 6.98813 10.4841 6.93438L10.4266 6.73563C10.4028 6.65563 10.4641 6.57562 10.5478 6.57562H11.4166C11.5003 6.57562 11.5603 6.65563 11.5378 6.73563L11.4803 6.93438C11.4641 6.98813 11.4141 7.02563 11.3591 7.02563ZM10.6041 9.58938H11.3578C11.4141 9.58938 11.4628 9.62688 11.4791 9.68063L11.5366 9.87937C11.5603 9.95937 11.4991 10.0394 11.4153 10.0394H10.5466C10.4628 10.0394 10.4028 9.95937 10.4253 9.87937L10.4828 9.68063C10.4991 9.62563 10.5491 9.58938 10.6041 9.58938ZM5.39284 9.43938H4.94534C4.87159 9.43938 4.81159 9.37938 4.81159 9.30563V7.30813C4.81159 7.23438 4.87159 7.17438 4.94534 7.17438H5.39284C5.46659 7.17438 5.52659 7.23438 5.52659 7.30813V9.30687C5.52534 9.38062 5.46534 9.43938 5.39284 9.43938ZM5.54534 7.02563H4.79159C4.73534 7.02563 4.68659 6.98813 4.67034 6.93438L4.61284 6.73563C4.58909 6.65563 4.65034 6.57562 4.73409 6.57562H5.60284C5.68659 6.57562 5.74659 6.65563 5.72409 6.73563L5.66659 6.93438C5.65034 6.98813 5.60159 7.02563 5.54534 7.02563ZM4.79159 9.58938H5.54534C5.60159 9.58938 5.65034 9.62688 5.66659 9.68063L5.72409 9.87937C5.74784 9.95937 5.68659 10.0394 5.60284 10.0394H4.73409C4.65034 10.0394 4.59034 9.95937 4.61284 9.87937L4.67034 9.68063C4.68659 9.62563 4.73534 9.58938 4.79159 9.58938ZM7.33034 9.43938H6.88284C6.80909 9.43938 6.74909 9.37938 6.74909 9.30563V7.30813C6.74909 7.23438 6.80909 7.17438 6.88284 7.17438H7.33034C7.40409 7.17438 7.46409 7.23438 7.46409 7.30813V9.30687C7.46376 9.34213 7.44952 9.37583 7.42447 9.40064C7.39943 9.42546 7.36559 9.43938 7.33034 9.43938ZM7.48284 7.02563H6.72909C6.67284 7.02563 6.62409 6.98813 6.60784 6.93438L6.55034 6.73563C6.52659 6.65563 6.58784 6.57562 6.67159 6.57562H7.54034C7.62409 6.57562 7.68409 6.65563 7.66159 6.73563L7.60409 6.93438C7.58784 6.98813 7.53909 7.02563 7.48284 7.02563ZM6.72909 9.58938H7.48284C7.53909 9.58938 7.58784 9.62688 7.60409 9.68063L7.66159 9.87937C7.68534 9.95937 7.62409 10.0394 7.54034 10.0394H6.67159C6.58784 10.0394 6.52784 9.95937 6.55034 9.87937L6.60784 9.68063C6.62409 9.62563 6.67284 9.58938 6.72909 9.58938ZM9.26784 9.43938H8.82034C8.74659 9.43938 8.68659 9.37938 8.68659 9.30563V7.30813C8.68659 7.23438 8.74659 7.17438 8.82034 7.17438H9.26784C9.34159 7.17438 9.40159 7.23438 9.40159 7.30813V9.30687C9.40126 9.34213 9.38702 9.37583 9.36197 9.40064C9.33692 9.42546 9.30309 9.43938 9.26784 9.43938ZM9.42034 7.02563H8.66659C8.61034 7.02563 8.56159 6.98813 8.54534 6.93438L8.48784 6.73563C8.46409 6.65563 8.52534 6.57562 8.60909 6.57562H9.47784C9.56159 6.57562 9.62159 6.65563 9.59909 6.73563L9.54159 6.93438C9.52534 6.98813 9.47659 7.02563 9.42034 7.02563ZM8.66659 9.58938H9.42034C9.47659 9.58938 9.52534 9.62688 9.54159 9.68063L9.59909 9.87937C9.62284 9.95937 9.56159 10.0394 9.47784 10.0394H8.60909C8.52534 10.0394 8.46534 9.95937 8.48784 9.87937L8.54534 9.68063C8.56159 9.62563 8.61159 9.58938 8.66659 9.58938Z" fill="#E7FF33"/>
</g>
<defs>
<clipPath id="clip0_4443_6268">
<rect width="16" height="16" fill="white"/>
</clipPath>
</defs>
</svg>
