<svg width="30" height="30" viewBox="0 0 30 30" fill="none" xmlns="http://www.w3.org/2000/svg">
<rect width="30" height="30" rx="8" fill="#17191D"/>
<path d="M13.4165 13.4051C13.362 12.6988 13.5253 11.9928 13.8842 11.3821C14.2431 10.7713 14.7805 10.2852 15.424 9.98917C16.0676 9.69311 16.7864 9.6013 17.4837 9.72611C18.181 9.85091 18.8233 10.1863 19.3242 10.6872C19.8251 11.1881 20.1606 11.8305 20.2854 12.5278C20.4102 13.2251 20.3184 13.9439 20.0223 14.5874C19.7262 15.231 19.2401 15.7684 18.6294 16.1273C18.0187 16.4862 17.3127 16.6494 16.6064 16.5949" stroke="#4ED634" stroke-width="0.8" stroke-linecap="round" stroke-linejoin="round"/>
<path d="M20.3385 17.6719C20.3385 18.0962 20.17 18.5032 19.8699 18.8032C19.5699 19.1033 19.1629 19.2719 18.7385 19.2719H17.6719M17.6719 19.2719L18.7385 18.2052M17.6719 19.2719L18.7385 20.3385M9.67188 12.3385C9.67188 11.9142 9.84045 11.5072 10.1405 11.2072C10.4406 10.9071 10.8475 10.7385 11.2719 10.7385H12.3385M12.3385 10.7385L11.2719 11.8052M12.3385 10.7385L11.2719 9.67188M13.1385 20.3385C12.2191 20.3385 11.3374 19.9733 10.6872 19.3232C10.0371 18.6731 9.67188 17.7913 9.67188 16.8719C9.67188 15.9525 10.0371 15.0707 10.6872 14.4206C11.3374 13.7704 12.2191 13.4052 13.1385 13.4052C14.058 13.4052 14.9397 13.7704 15.5898 14.4206C16.24 15.0707 16.6052 15.9525 16.6052 16.8719C16.6052 17.7913 16.24 18.6731 15.5898 19.3232C14.9397 19.9733 14.058 20.3385 13.1385 20.3385Z" stroke="#4ED634" stroke-width="0.8" stroke-linecap="round" stroke-linejoin="round"/>
</svg>
