<svg width="36" height="36" viewBox="0 0 36 36" fill="none" xmlns="http://www.w3.org/2000/svg">
<rect x="0.5" y="0.5" width="35" height="35" rx="17.5" stroke="#B83616" stroke-opacity="0.25"/>
<g clip-path="url(#clip0_5285_5354)">
<path d="M18 21.1111H18.0062M18 14.8889V18.7778M11.1789 14.8212L14.8189 11.1789C14.9356 11.0622 15.0911 11 15.2622 11H20.7456C20.9089 11 21.0722 11.0622 21.1889 11.1789L24.8211 14.8134C24.9378 14.9301 25 15.0857 25 15.2568V20.7432C25 20.9065 24.9378 21.0699 24.8211 21.1865L21.1889 24.8211C21.0722 24.9377 20.9167 25 20.7456 25H15.2545C15.1724 25.0008 15.091 24.9855 15.0149 24.9548C14.9389 24.9241 14.8696 24.8787 14.8111 24.8211L11.1789 21.1865C11.1214 21.1281 11.0759 21.0588 11.0452 20.9827C11.0145 20.9066 10.9992 20.8252 11 20.7432V15.2568C11 15.0934 11.0623 14.9301 11.1789 14.8134V14.8212Z" stroke="#B83616" stroke-miterlimit="10" stroke-linecap="round" stroke-linejoin="round"/>
</g>
<defs>
<clipPath id="clip0_5285_5354">
<rect width="16" height="16" fill="white" transform="translate(10 10)"/>
</clipPath>
</defs>
</svg>
