<svg width="27" height="26" viewBox="0 0 27 26" fill="none" xmlns="http://www.w3.org/2000/svg">
<rect x="1.39062" y="0.5" width="24.8926" height="25" rx="12.4463" stroke="#727885"/>
<g clip-path="url(#clip0_5217_5230)">
<path d="M8.79883 12.9502C8.1833 12.9502 7.67969 12.4466 7.67969 11.8311V9.03321C7.67969 8.41768 8.1833 7.91406 8.79883 7.91406H13.2754C13.8909 7.91406 14.3946 8.41768 14.3946 9.03321V11.8311C14.3946 12.4466 13.8909 12.9502 13.2754 12.9502H12.1563V14.6289L10.4776 12.9502H8.79883ZM18.8711 16.3077C19.4867 16.3077 19.9903 15.804 19.9903 15.1885V12.3906C19.9903 11.7751 19.4867 11.2715 18.8711 11.2715H15.5137V11.8311C15.5137 13.0621 14.5065 14.0694 13.2754 14.0694V15.1885C13.2754 15.804 13.779 16.3077 14.3946 16.3077H15.5137V17.9864L17.1924 16.3077H18.8711Z" fill="#727885"/>
</g>
<defs>
<clipPath id="clip0_5217_5230">
<rect width="13.4298" height="13.4298" fill="white" transform="translate(7.125 6.22656)"/>
</clipPath>
</defs>
</svg>
