<svg width="71" height="71" viewBox="0 0 71 71" fill="none" xmlns="http://www.w3.org/2000/svg">
<rect x="0.148438" width="70.7066" height="71" rx="35.3533" fill="black"/>
<path d="M21.7514 35.3541C20.0706 35.3541 18.6953 33.9789 18.6953 32.298V24.6577C18.6953 22.9768 20.0706 21.6016 21.7514 21.6016H33.976C35.6568 21.6016 37.0321 22.9768 37.0321 24.6577V32.298C37.0321 33.9789 35.6568 35.3541 33.976 35.3541H30.9198V39.9383L26.3356 35.3541H21.7514ZM49.2566 44.5225C50.9375 44.5225 52.3127 43.1473 52.3127 41.4664V33.8261C52.3127 32.1452 50.9375 30.77 49.2566 30.77H40.0882V32.298C40.0882 35.6598 37.3377 38.4103 33.976 38.4103V41.4664C33.976 43.1473 35.3512 44.5225 37.0321 44.5225H40.0882V49.1067L44.6724 44.5225H49.2566Z" fill="#9DA3AE"/>
</svg>
