<svg width="36" height="36" viewBox="0 0 36 36" fill="none" xmlns="http://www.w3.org/2000/svg">
<rect x="0.5" y="0.5" width="35" height="35" rx="17.5" stroke="#4ED634" stroke-opacity="0.25"/>
<g clip-path="url(#clip0_5285_5358)">
<path d="M18 10C13.5817 10 10 13.5817 10 18C10 22.4185 13.5817 26 18 26C22.4185 26 26 22.4185 26 18C26 13.5817 22.4185 10 18 10ZM18 25.0157C14.1402 25.0157 11 21.8597 11 18C11 14.1402 14.1402 11 18 11C21.8598 11 25 14.1402 25 18C25 21.8597 21.8598 25.0157 18 25.0157ZM21.1927 15.0728L16.499 19.796L14.3852 17.6823C14.19 17.487 13.8735 17.487 13.678 17.6823C13.4827 17.8775 13.4827 18.194 13.678 18.3892L16.1527 20.8643C16.348 21.0593 16.6645 21.0593 16.86 20.8643C16.8825 20.8418 16.9018 20.8172 16.9193 20.7917L21.9003 15.78C22.0953 15.5847 22.0953 15.2682 21.9003 15.0728C21.7048 14.8775 21.3882 14.8775 21.1927 15.0728Z" fill="#76D351"/>
</g>
<defs>
<clipPath id="clip0_5285_5358">
<rect width="16" height="16" fill="white" transform="translate(10 10)"/>
</clipPath>
</defs>
</svg>
