<svg width="30" height="30" viewBox="0 0 30 30" fill="none" xmlns="http://www.w3.org/2000/svg">
<rect width="30" height="30" rx="8" fill="#17191D"/>
<path d="M11.8031 9.40156H18.2031C18.4153 9.40156 18.6188 9.48585 18.7688 9.63588C18.9188 9.78591 19.0031 9.98939 19.0031 10.2016V14.2192C19.2783 14.2442 19.545 14.2936 19.8031 14.3672V10.2016C19.8031 9.77722 19.6346 9.37025 19.3345 9.07019C19.0344 8.77013 18.6275 8.60156 18.2031 8.60156H11.8031C11.3788 8.60156 10.9718 8.77013 10.6718 9.07019C10.3717 9.37025 10.2031 9.77722 10.2031 10.2016V19.8016C10.2031 20.2259 10.3717 20.6329 10.6718 20.9329C10.9718 21.233 11.3788 21.4016 11.8031 21.4016H15.2087C15.005 21.1548 14.8287 20.8865 14.6831 20.6016H11.8031C11.591 20.6016 11.3875 20.5173 11.2374 20.3672C11.0874 20.2172 11.0031 20.0137 11.0031 19.8016H14.3687C14.2948 19.54 14.2452 19.2722 14.2207 19.0016H11.0031V10.2016C11.0031 9.98939 11.0874 9.78591 11.2374 9.63588C11.3875 9.48585 11.591 9.40156 11.8031 9.40156ZM12.6031 10.2016C12.391 10.2016 12.1875 10.2858 12.0374 10.4359C11.8874 10.5859 11.8031 10.7894 11.8031 11.0016V11.8016C11.8031 12.0137 11.8874 12.2172 12.0374 12.3672C12.1875 12.5173 12.391 12.6016 12.6031 12.6016H17.4031C17.6153 12.6016 17.8188 12.5173 17.9688 12.3672C18.1188 12.2172 18.2031 12.0137 18.2031 11.8016V11.0016C18.2031 10.7894 18.1188 10.5859 17.9688 10.4359C17.8188 10.2858 17.6153 10.2016 17.4031 10.2016H12.6031ZM17.4031 11.0016V11.8016H12.6031V11.0016H17.4031ZM22.2031 18.6016C22.2031 19.5563 21.8238 20.472 21.1487 21.1471C20.4736 21.8223 19.5579 22.2016 18.6031 22.2016C17.6483 22.2016 16.7327 21.8223 16.0575 21.1471C15.3824 20.472 15.0031 19.5563 15.0031 18.6016C15.0031 17.6468 15.3824 16.7311 16.0575 16.056C16.7327 15.3808 17.6483 15.0016 18.6031 15.0016C19.5579 15.0016 20.4736 15.3808 21.1487 16.056C21.8238 16.7311 22.2031 17.6468 22.2031 18.6016ZM18.2191 17.0288C18.1673 16.993 18.107 16.9714 18.0443 16.9662C17.9815 16.961 17.9185 16.9724 17.8615 16.9992C17.8151 17.0198 17.773 17.0491 17.7375 17.0856C17.7003 17.1231 17.6708 17.1677 17.6509 17.2167C17.631 17.2658 17.621 17.3183 17.6215 17.3712V19.8312C17.6209 19.8842 17.6308 19.9368 17.6508 19.986C17.6707 20.0352 17.7002 20.0799 17.7375 20.1176C17.7744 20.1534 17.8168 20.1831 17.8631 20.2056C17.9443 20.2428 18.0364 20.2485 18.1215 20.2216C18.1585 20.2096 18.1935 20.1924 18.2255 20.1704L20.0623 18.9168C20.1182 18.8799 20.1632 18.8288 20.1927 18.7688C20.2229 18.7082 20.2384 18.6413 20.2379 18.5737C20.2375 18.506 20.2212 18.4394 20.1903 18.3792C20.1587 18.3202 20.1127 18.2702 20.0567 18.2336L18.2191 17.0288Z" fill="#4ED634"/>
</svg>
