<svg width="36" height="36" viewBox="0 0 36 36" fill="none" xmlns="http://www.w3.org/2000/svg">
<rect width="36" height="36" rx="8" fill="#17191D"/>
<path d="M11.158 17.4921C11.085 18.8881 11.169 20.3741 9.922 21.3091C9.63531 21.5237 9.40266 21.8022 9.24259 22.1225C9.08253 22.4428 8.99946 22.7961 9 23.1541C9 24.1511 9.782 25.0011 10.8 25.0011H25.2C26.218 25.0011 27 24.1511 27 23.1541C27 22.4281 26.658 21.7441 26.078 21.3091C24.831 20.3741 24.915 18.8881 24.842 17.4921C24.752 15.7382 23.9919 14.0858 22.7186 12.8762C21.4454 11.6666 19.7562 10.9922 18 10.9922C16.2438 10.9922 14.5546 11.6666 13.2814 12.8762C12.0081 14.0858 11.248 15.7382 11.158 17.4921Z" stroke="#4ED634" stroke-width="1.5" stroke-linecap="round" stroke-linejoin="round"/>
<path d="M21 25C21 25.7956 20.6839 26.5587 20.1213 27.1213C19.5587 27.6839 18.7956 28 18 28C17.2044 28 16.4413 27.6839 15.8787 27.1213C15.3161 26.5587 15 25.7956 15 25M16.5 9.125C16.5 9.953 17.172 11 18 11C18.828 11 19.5 9.953 19.5 9.125C19.5 8.297 18.828 8 18 8C17.172 8 16.5 8.297 16.5 9.125Z" stroke="#4ED634" stroke-width="1.5" stroke-linecap="round" stroke-linejoin="round"/>
</svg>
