<svg width="36" height="36" viewBox="0 0 36 36" fill="none" xmlns="http://www.w3.org/2000/svg">
<rect width="36" height="36" rx="8" fill="#17191D"/>
<path d="M18 8C16.6868 8 15.3864 8.25866 14.1732 8.7612C12.9599 9.26375 11.8575 10.0003 10.9289 10.9289C9.05357 12.8043 8 15.3478 8 18C8 20.6522 9.05357 23.1957 10.9289 25.0711C11.8575 25.9997 12.9599 26.7362 14.1732 27.2388C15.3864 27.7413 16.6868 28 18 28C20.6522 28 23.1957 26.9464 25.0711 25.0711C26.9464 23.1957 28 20.6522 28 18C28 16.6868 27.7413 15.3864 27.2388 14.1732C26.7362 12.9599 25.9997 11.8575 25.0711 10.9289C24.1425 10.0003 23.0401 9.26375 21.8268 8.7612C20.6136 8.25866 19.3132 8 18 8ZM18 14.39C19.6135 15.4384 21.4958 15.9976 23.42 16C24.2 16 24.95 15.91 25.67 15.74C25.88 16.45 26 17.21 26 18C26 22.41 22.41 26 18 26C15 26 12.39 24.34 11 21.89L12.75 20V19C12.75 18.6685 12.8817 18.3505 13.1161 18.1161C13.3505 17.8817 13.6685 17.75 14 17.75C14.3315 17.75 14.6495 17.8817 14.8839 18.1161C15.1183 18.3505 15.25 18.6685 15.25 19V20H18M22 17.75C21.6685 17.75 21.3505 17.8817 21.1161 18.1161C20.8817 18.3505 20.75 18.6685 20.75 19C20.75 19.3315 20.8817 19.6495 21.1161 19.8839C21.3505 20.1183 21.6685 20.25 22 20.25C22.3315 20.25 22.6495 20.1183 22.8839 19.8839C23.1183 19.6495 23.25 19.3315 23.25 19C23.25 18.6685 23.1183 18.3505 22.8839 18.1161C22.6495 17.8817 22.3315 17.75 22 17.75Z" fill="white" fill-opacity="0.6"/>
</svg>
