<svg width="33" height="33" viewBox="0 0 33 33" fill="none" xmlns="http://www.w3.org/2000/svg">
<rect width="33" height="33" rx="5" fill="#4ED634"/>
<rect x="0.5" y="0.5" width="32" height="32" rx="4.5" stroke="white" stroke-opacity="0.2"/>
<path d="M15.3351 18.6667L24.5018 9.5M15.3351 18.6667L18.2518 24.5C18.2883 24.5798 18.347 24.6474 18.4209 24.6948C18.4948 24.7422 18.5807 24.7674 18.6684 24.7674C18.7562 24.7674 18.8421 24.7422 18.916 24.6948C18.9898 24.6474 19.0485 24.5798 19.0851 24.5L24.5018 9.5M15.3351 18.6667L9.50177 15.75C9.42198 15.7134 9.35437 15.6547 9.30697 15.5809C9.25957 15.507 9.23438 15.4211 9.23438 15.3333C9.23438 15.2456 9.25957 15.1597 9.30697 15.0858C9.35437 15.0119 9.42198 14.9532 9.50177 14.9167L24.5018 9.5" stroke="black" stroke-linecap="round" stroke-linejoin="round"/>
</svg>
