<svg width="66" height="66" viewBox="0 0 66 66" fill="none" xmlns="http://www.w3.org/2000/svg">
<path d="M16.5 55C15.7208 55 15.0682 54.736 14.542 54.208C14.0158 53.68 13.7518 53.0273 13.75 52.25C13.7482 51.4727 14.0122 50.82 14.542 50.292C15.0718 49.764 15.7245 49.5 16.5 49.5H49.5C50.2792 49.5 50.9328 49.764 51.4608 50.292C51.9888 50.82 52.2518 51.4727 52.25 52.25C52.2482 53.0273 51.9842 53.6809 51.458 54.2108C50.9318 54.7406 50.2792 55.0037 49.5 55H16.5ZM18.425 45.375C17.0958 45.375 15.9161 44.9396 14.8858 44.0688C13.8554 43.1979 13.2248 42.0979 12.9938 40.7688L10.2438 23.3063C10.1521 23.3063 10.0494 23.3182 9.93576 23.342C9.82209 23.3658 9.71851 23.3768 9.62501 23.375C8.47917 23.375 7.50567 22.9744 6.70451 22.1733C5.90334 21.3721 5.50184 20.3977 5.50001 19.25C5.49817 18.1023 5.89967 17.1288 6.70451 16.3295C7.50934 15.5302 8.48284 15.1287 9.62501 15.125C10.7672 15.1213 11.7416 15.5228 12.5483 16.3295C13.3549 17.1362 13.7555 18.1097 13.75 19.25C13.75 19.5708 13.7152 19.8688 13.6455 20.1438C13.5758 20.4188 13.4961 20.6708 13.4063 20.9L22 24.75L30.5938 12.9938C30.0896 12.6271 29.6771 12.1458 29.3563 11.55C29.0354 10.9542 28.875 10.3125 28.875 9.62501C28.875 8.47917 29.2765 7.50476 30.0795 6.70176C30.8825 5.89876 31.856 5.49817 33 5.50001C34.144 5.50184 35.1184 5.90334 35.9233 6.70451C36.7281 7.50567 37.1287 8.47917 37.125 9.62501C37.125 10.3125 36.9646 10.9542 36.6438 11.55C36.3229 12.1458 35.9104 12.6271 35.4063 12.9938L44 24.75L52.5938 20.9C52.5021 20.6708 52.4214 20.4188 52.3518 20.1438C52.2821 19.8688 52.2482 19.5708 52.25 19.25C52.25 18.1042 52.6515 17.1298 53.4545 16.3268C54.2575 15.5238 55.231 15.1232 56.375 15.125C57.519 15.1268 58.4934 15.5283 59.2983 16.3295C60.1031 17.1307 60.5037 18.1042 60.5 19.25C60.4963 20.3958 60.0958 21.3703 59.2983 22.1733C58.5008 22.9763 57.5263 23.3768 56.375 23.375C56.2833 23.375 56.1807 23.364 56.067 23.342C55.9533 23.32 55.8498 23.3081 55.7563 23.3063L53.0063 40.7688C52.7771 42.0979 52.1473 43.1979 51.117 44.0688C50.0867 44.9396 48.906 45.375 47.575 45.375H18.425Z" fill="url(#paint0_linear_4441_6243)"/>
<defs>
<linearGradient id="paint0_linear_4441_6243" x1="33" y1="5.5" x2="33" y2="55" gradientUnits="userSpaceOnUse">
<stop stop-color="#C7C3C1"/>
<stop offset="1" stop-color="#746D66"/>
</linearGradient>
</defs>
</svg>
