<svg width="30" height="30" viewBox="0 0 30 30" fill="none" xmlns="http://www.w3.org/2000/svg">
<rect width="30" height="30" rx="8" fill="#17191D"/>
<path d="M20.7648 8.0311C20.6148 7.88113 20.4114 7.79688 20.1992 7.79688C19.9871 7.79688 19.7837 7.88113 19.6336 8.0311L18.4304 9.2335C18.2805 9.38353 18.1962 9.58697 18.1962 9.7991C18.1962 10.0112 18.2805 10.2147 18.4304 10.3647L19.6328 11.5671C19.7829 11.7171 19.9863 11.8013 20.1984 11.8013C20.4106 11.8013 20.614 11.7171 20.764 11.5671L21.9664 10.3647C22.1164 10.2147 22.2007 10.0112 22.2007 9.7991C22.2007 9.58697 22.1164 9.38353 21.9664 9.2335L20.7648 8.0311ZM18.9968 9.7991L20.1992 8.5967L21.4016 9.7991L20.1984 11.0015L18.9968 9.7991ZM17.3968 9.3991H11.3984C10.868 9.3991 10.3593 9.60982 9.98422 9.98489C9.60915 10.36 9.39844 10.8687 9.39844 11.3991V18.5991C9.39844 19.1295 9.60915 19.6382 9.98422 20.0133C10.3593 20.3884 10.868 20.5991 11.3984 20.5991H18.5984C19.1289 20.5991 19.6376 20.3884 20.0127 20.0133C20.3877 19.6382 20.5984 19.1295 20.5984 18.5991V12.5991H17.3968V9.3991ZM11.2832 19.7935C10.9863 19.7649 10.7107 19.6267 10.5101 19.4058C10.3096 19.185 10.1985 18.8974 10.1984 18.5991V17.3991H12.5984V19.7991H11.3984L11.2832 19.7935ZM13.3984 17.3991H16.5984V19.7991H13.3984V17.3991ZM19.7928 18.7143C19.7642 19.0112 19.626 19.2869 19.4052 19.4874C19.1844 19.688 18.8967 19.7991 18.5984 19.7991H17.3984V17.3991H19.7984V18.5991L19.7928 18.7143ZM13.3984 13.3991H16.5984V16.5991H13.3984V13.3991ZM17.3984 16.5991V13.3991H19.7984V16.5991H17.3984ZM13.3984 10.1991H16.5984V12.5991H13.3984V10.1991ZM11.3984 10.1991H12.5984V12.5991H10.1984V11.3991L10.204 11.2831C10.2329 10.9863 10.3711 10.7109 10.592 10.5105C10.8128 10.3101 11.1003 10.1991 11.3984 10.1991ZM10.1984 16.5991V13.3991H12.5984V16.5991H10.1984Z" fill="white" fill-opacity="0.6"/>
</svg>
