<svg width="36" height="36" viewBox="0 0 36 36" fill="none" xmlns="http://www.w3.org/2000/svg">
<rect width="36" height="36" rx="8" fill="#17191D"/>
<path d="M25.5 12.75H10.5C9.25736 12.75 8.25 13.7574 8.25 15V24C8.25 25.2426 9.25736 26.25 10.5 26.25H25.5C26.7426 26.25 27.75 25.2426 27.75 24V15C27.75 13.7574 26.7426 12.75 25.5 12.75Z" stroke="#4ED634" stroke-width="1.5" stroke-linejoin="round"/>
<path d="M25.2825 12.7492V11.343C25.2824 10.9981 25.2062 10.6575 25.0592 10.3454C24.9123 10.0334 24.6984 9.75759 24.4326 9.53776C24.1668 9.31793 23.8558 9.15946 23.5217 9.07367C23.1877 8.98787 22.8388 8.97687 22.5 9.04143L10.155 11.1485C9.6189 11.2506 9.13526 11.5367 8.78749 11.9573C8.43972 12.3779 8.24963 12.9066 8.25 13.4524V15.7492" stroke="#4ED634" stroke-width="1.5" stroke-linejoin="round"/>
<path d="M23.25 21C22.9533 21 22.6633 20.912 22.4166 20.7472C22.17 20.5824 21.9777 20.3481 21.8642 20.074C21.7506 19.7999 21.7209 19.4983 21.7788 19.2074C21.8367 18.9164 21.9796 18.6491 22.1893 18.4393C22.3991 18.2296 22.6664 18.0867 22.9574 18.0288C23.2483 17.9709 23.5499 18.0006 23.824 18.1142C24.0981 18.2277 24.3324 18.42 24.4972 18.6666C24.662 18.9133 24.75 19.2033 24.75 19.5C24.75 19.8978 24.592 20.2794 24.3107 20.5607C24.0294 20.842 23.6478 21 23.25 21Z" fill="#4ED634"/>
</svg>
