<svg width="32" height="33" viewBox="0 0 32 33" fill="none" xmlns="http://www.w3.org/2000/svg">
<path d="M9.9421 10.8401H4.64798C4.16268 10.8401 3.76562 11.2371 3.76562 11.7224V27.6048C3.76562 28.0901 4.16268 28.4871 4.64798 28.4871H9.9421C10.4274 28.4871 10.8244 28.0901 10.8244 27.6048V11.7224C10.8244 11.2371 10.4274 10.8401 9.9421 10.8401ZM9.9421 26.7224H4.64798V19.6636H9.9421V26.7224ZM18.7656 7.31066H13.4715C12.9862 7.31066 12.5892 7.70772 12.5892 8.19301V27.6048C12.5892 28.0901 12.9862 28.4871 13.4715 28.4871H18.7656C19.2509 28.4871 19.648 28.0901 19.648 27.6048V8.19301C19.648 7.70772 19.2509 7.31066 18.7656 7.31066ZM18.7656 26.7224H13.4715V17.8989H18.7656V26.7224ZM27.5892 3.78125H22.295C21.8097 3.78125 21.4127 4.17831 21.4127 4.6636V27.6048C21.4127 28.0901 21.8097 28.4871 22.295 28.4871H27.5892C28.0744 28.4871 28.4715 28.0901 28.4715 27.6048V4.6636C28.4715 4.17831 28.0744 3.78125 27.5892 3.78125ZM27.5892 26.7224H22.295V16.1342H27.5892V26.7224Z" fill="url(#paint0_linear_4652_5247)"/>
<defs>
<linearGradient id="paint0_linear_4652_5247" x1="16.1186" y1="3.78125" x2="16.1186" y2="28.4871" gradientUnits="userSpaceOnUse">
<stop stop-color="#4ED634"/>
<stop offset="1" stop-color="#9CE4FF"/>
</linearGradient>
</defs>
</svg>
