<svg width="26" height="26" viewBox="0 0 26 26" fill="none" xmlns="http://www.w3.org/2000/svg">
<path d="M16.1312 11.1391H24.4688C24.7439 11.1391 25.0078 11.0298 25.2024 10.8352C25.3969 10.6406 25.5062 10.3767 25.5062 10.1016C25.5062 7.61516 24.5185 5.23059 22.7604 3.47244C21.0022 1.71428 18.6177 0.726563 16.1312 0.726562C15.8561 0.726563 15.5922 0.83587 15.3976 1.03044C15.2031 1.22501 15.0938 1.4889 15.0938 1.76406V10.1016C15.0937 10.3767 15.2031 10.6406 15.3976 10.8352C15.5922 11.0298 15.8561 11.1391 16.1312 11.1391ZM17.1687 2.88906C18.7269 3.11332 20.1705 3.83608 21.2836 4.94919C22.3967 6.06231 23.1195 7.50593 23.3438 9.06406H17.1687V2.88906Z" fill="url(#paint0_linear_4656_6012)"/>
<path d="M24.3504 13.2256H14.1629C14.0136 13.2256 13.8656 13.1961 13.7276 13.139C13.5896 13.0818 13.4642 12.998 13.3586 12.8924C13.253 12.7868 13.1692 12.6614 13.112 12.5234C13.0549 12.3854 13.0254 12.2374 13.0254 12.0881V1.87557C13.0264 1.71343 12.9931 1.55292 12.9276 1.40457C12.8622 1.25622 12.7661 1.12339 12.6457 1.01479C12.5253 0.906197 12.3833 0.824288 12.229 0.774441C12.0747 0.724595 11.9116 0.707939 11.7504 0.725566C9.40387 0.974733 7.17577 1.88303 5.32378 3.34543C3.4718 4.80782 2.07158 6.76457 1.28507 8.98939C0.498555 11.2142 0.357866 13.6162 0.879272 15.9177C1.40068 18.2191 2.56288 20.3259 4.23148 21.9945C5.90008 23.6631 8.00691 24.8253 10.3083 25.3467C12.6098 25.8681 15.0118 25.7274 17.2366 24.9409C19.4614 24.1544 21.4182 22.7542 22.8806 20.9022C24.343 19.0502 25.2513 16.8221 25.5004 14.4756C25.5143 14.3164 25.4949 14.156 25.4434 14.0047C25.3918 13.8534 25.3093 13.7146 25.2011 13.5969C25.0929 13.4793 24.9614 13.3856 24.8149 13.3216C24.6684 13.2577 24.5103 13.225 24.3504 13.2256Z" fill="url(#paint1_linear_4656_6012)"/>
<defs>
<linearGradient id="paint0_linear_4656_6012" x1="20.3" y1="0.726562" x2="20.3" y2="11.1391" gradientUnits="userSpaceOnUse">
<stop stop-color="#4ED634"/>
<stop offset="1" stop-color="#9CE4FF"/>
</linearGradient>
<linearGradient id="paint1_linear_4656_6012" x1="13.0376" y1="0.71875" x2="13.0376" y2="25.6557" gradientUnits="userSpaceOnUse">
<stop stop-color="#4ED634"/>
<stop offset="1" stop-color="#9CE4FF"/>
</linearGradient>
</defs>
</svg>
