<svg width="28" height="28" viewBox="0 0 28 28" fill="none" xmlns="http://www.w3.org/2000/svg">
<path d="M25.6898 11.1377C25.5856 11.2446 25.5092 11.3754 25.4671 11.5186C25.4249 11.6618 25.4184 11.8131 25.4481 11.9594C25.5948 12.6927 25.6681 13.4466 25.6681 14.221C25.6679 16.5731 24.9568 18.8701 23.6281 20.8109C22.2994 22.7517 20.4152 24.2455 18.2225 25.0965C16.0298 25.9475 13.6311 26.1158 11.3411 25.5795C9.05101 25.0432 6.97654 23.8272 5.38976 22.0911C5.31106 22.0028 5.21545 21.9313 5.1086 21.8807C5.00175 21.8301 4.88583 21.8015 4.7677 21.7965C4.64958 21.7915 4.53166 21.8103 4.42093 21.8517C4.31021 21.8932 4.20892 21.9564 4.12309 22.0377C3.97725 22.179 3.89125 22.3709 3.88287 22.5737C3.8745 22.7766 3.94438 22.9749 4.07809 23.1277C6.03599 25.3109 8.65901 26.7877 11.541 27.3295C14.423 27.8712 17.4033 27.4478 20.0203 26.1246C22.6373 24.8015 24.7452 22.6525 26.0175 20.0104C27.2897 17.3683 27.6555 14.3804 27.0581 11.5094C26.9264 10.8711 26.1498 10.6794 25.6898 11.1394M23.6498 6.15605C23.7984 6.0121 23.8848 5.81567 23.8904 5.60883C23.896 5.40199 23.8204 5.20118 23.6798 5.04938C21.6725 2.92919 19.0247 1.52647 16.1431 1.05662C13.2615 0.586758 10.3053 1.07574 7.7285 2.44847C5.15168 3.8212 3.09666 6.00179 1.87899 8.65542C0.661331 11.309 0.348343 14.289 0.98809 17.1377C1.12809 17.7677 1.89809 17.9527 2.35476 17.4961C2.57142 17.2794 2.65476 16.9627 2.59142 16.6627C2.06017 14.1832 2.35126 11.5981 3.42061 9.29873C4.48996 6.99942 6.27935 5.11112 8.51786 3.91972C10.7564 2.72832 13.3221 2.2987 15.8266 2.6959C18.3311 3.0931 20.638 4.2955 22.3981 6.12105C22.4778 6.20553 22.5734 6.27346 22.6794 6.32095C22.7854 6.36844 22.8997 6.39455 23.0158 6.3978C23.1319 6.40106 23.2475 6.38138 23.356 6.33989C23.4645 6.29841 23.5654 6.23594 23.6498 6.15605Z" fill="url(#paint0_linear_4652_5990)"/>
<path fill-rule="evenodd" clip-rule="evenodd" d="M24.2031 2.55469C24.4241 2.55469 24.6361 2.64249 24.7924 2.79877C24.9487 2.95505 25.0365 3.16701 25.0365 3.38802V6.72135C25.0365 6.94237 24.9487 7.15433 24.7924 7.31061C24.6361 7.46689 24.4241 7.55469 24.2031 7.55469H20.8698C20.6488 7.55469 20.4368 7.46689 20.2805 7.31061C20.1243 7.15433 20.0365 6.94237 20.0365 6.72135C20.0365 6.50034 20.1243 6.28838 20.2805 6.1321C20.4368 5.97582 20.6488 5.88802 20.8698 5.88802H23.3698V3.38802C23.3698 3.16701 23.4576 2.95505 23.6139 2.79877C23.7702 2.64249 23.9821 2.55469 24.2031 2.55469ZM3.19646 21.133C3.27385 21.0554 3.36581 20.9938 3.46705 20.9517C3.56829 20.9097 3.67684 20.888 3.78646 20.888H7.11979C7.34081 20.888 7.55277 20.9758 7.70905 21.1321C7.86533 21.2884 7.95313 21.5003 7.95313 21.7214C7.95313 21.9424 7.86533 22.1543 7.70905 22.3106C7.55277 22.4669 7.34081 22.5547 7.11979 22.5547H4.61979V25.0547C4.61979 25.2757 4.532 25.4877 4.37572 25.6439C4.21943 25.8002 4.00747 25.888 3.78646 25.888C3.56545 25.888 3.35348 25.8002 3.1972 25.6439C3.04092 25.4877 2.95313 25.2757 2.95313 25.0547V21.7214C2.95293 21.6118 2.97432 21.5034 3.01607 21.4021C3.05783 21.3009 3.11912 21.2106 3.19646 21.133Z" fill="url(#paint1_linear_4652_5990)"/>
<path d="M14.3727 14.7826V18.0176C15.476 17.8943 16.2694 17.2559 16.2694 16.3409C16.2694 15.4109 15.3944 15.0643 14.4094 14.7909L14.3727 14.7826ZM11.9844 11.9843C11.9844 12.9093 12.9344 13.2926 13.626 13.4876V10.4609C12.6227 10.5943 11.9844 11.1943 11.9844 11.9843Z" fill="url(#paint2_linear_4652_5990)"/>
<path fill-rule="evenodd" clip-rule="evenodd" d="M13.9974 22.5573C16.2075 22.5573 18.3271 21.6793 19.89 20.1165C21.4528 18.5537 22.3307 16.4341 22.3307 14.224C22.3307 12.0138 21.4528 9.8942 19.89 8.3314C18.3271 6.7686 16.2075 5.89062 13.9974 5.89062C11.7873 5.89062 9.66764 6.7686 8.10484 8.3314C6.54204 9.8942 5.66406 12.0138 5.66406 14.224C5.66406 16.4341 6.54204 18.5537 8.10484 20.1165C9.66764 21.6793 11.7873 22.5573 13.9974 22.5573ZM14.3707 20.0573H13.6241V19.0406C11.8324 18.924 10.7391 17.9206 10.6341 16.484H11.8007C11.8841 17.4223 12.6674 17.9156 13.6241 18.0156V14.5656L13.2591 14.4606C11.8007 14.0423 10.8891 13.294 10.8891 12.0373C10.8891 10.604 12.0607 9.61229 13.6224 9.45396V8.39062H14.3724V9.43896C16.0224 9.54896 17.1891 10.5606 17.2324 11.8906H16.1391C16.0391 11.0606 15.3374 10.5406 14.3724 10.4456V13.6856L14.7357 13.7856C15.7024 14.0423 17.3607 14.6073 17.3607 16.3573C17.3607 17.779 16.2857 18.909 14.3707 19.0406V20.0573Z" fill="url(#paint3_linear_4652_5990)"/>
<defs>
<linearGradient id="paint0_linear_4652_5990" x1="14.0009" y1="0.882812" x2="14.0009" y2="27.559" gradientUnits="userSpaceOnUse">
<stop stop-color="#4ED634"/>
<stop offset="1" stop-color="#9CE4FF"/>
</linearGradient>
<linearGradient id="paint1_linear_4652_5990" x1="13.9948" y1="2.55469" x2="13.9948" y2="25.888" gradientUnits="userSpaceOnUse">
<stop stop-color="#4ED634"/>
<stop offset="1" stop-color="#9CE4FF"/>
</linearGradient>
<linearGradient id="paint2_linear_4652_5990" x1="14.1269" y1="10.4609" x2="14.1269" y2="18.0176" gradientUnits="userSpaceOnUse">
<stop stop-color="#4ED634"/>
<stop offset="1" stop-color="#9CE4FF"/>
</linearGradient>
<linearGradient id="paint3_linear_4652_5990" x1="13.9974" y1="5.89062" x2="13.9974" y2="22.5573" gradientUnits="userSpaceOnUse">
<stop stop-color="#4ED634"/>
<stop offset="1" stop-color="#9CE4FF"/>
</linearGradient>
</defs>
</svg>
