<svg width="88" height="89" viewBox="0 0 88 89" fill="none" xmlns="http://www.w3.org/2000/svg">
<path fill-rule="evenodd" clip-rule="evenodd" d="M44.3531 11C36.1023 11 28.5859 13.7253 24.1381 15.9519C23.7362 16.1528 23.3612 16.3489 23.0129 16.5401C22.3225 16.9164 21.7343 17.2671 21.2667 17.5758L26.3264 25.0246L28.7083 25.9727C38.0166 30.6688 50.4996 30.6688 59.8098 25.9727L62.5132 24.5698L67.297 17.5758C66.305 16.9312 65.2747 16.3474 64.2119 15.8277C59.7861 13.6248 52.4486 11 44.3549 11M32.588 19.4316C30.7967 19.0945 29.0272 18.6504 27.289 18.1018C31.4555 16.2515 37.6641 14.2879 44.3549 14.2879C48.989 14.2879 53.371 15.2304 56.995 16.425C52.7482 17.0223 48.2164 18.0361 43.8983 19.2836C40.5008 20.2663 36.5298 20.1604 32.588 19.4316ZM61.7405 28.6815L61.2912 28.908C51.0512 34.0736 37.4686 34.0736 27.2287 28.908L26.8031 28.6925C11.4176 45.5721 -0.327407 76.7522 44.3531 76.7522C89.0336 76.7522 77.0036 44.9931 61.7405 28.6815ZM42.4553 43.8788C41.4864 43.8788 40.5572 44.2637 39.8721 44.9488C39.1869 45.6339 38.8021 46.5631 38.8021 47.532C38.8021 48.5009 39.1869 49.4301 39.8721 50.1152C40.5572 50.8003 41.4864 51.1852 42.4553 51.1852V43.8788ZM46.1085 40.2256V38.399H42.4553V40.2256C40.5175 40.2256 38.6591 40.9954 37.2888 42.3656C35.9186 43.7358 35.1489 45.5943 35.1489 47.532C35.1489 49.4698 35.9186 51.3282 37.2888 52.6984C38.6591 54.0687 40.5175 54.8384 42.4553 54.8384V62.1448C40.8661 62.1448 39.5126 61.1311 39.0085 59.71C38.9337 59.4775 38.813 59.2623 38.6536 59.0773C38.4942 58.8922 38.2993 58.741 38.0805 58.6326C37.8616 58.5242 37.6233 58.4608 37.3795 58.4461C37.1357 58.4314 36.8914 58.4658 36.6611 58.5471C36.4308 58.6285 36.2192 58.7552 36.0388 58.9198C35.8583 59.0844 35.7127 59.2835 35.6105 59.5053C35.5084 59.7271 35.4517 59.9672 35.4439 60.2113C35.4362 60.4554 35.4775 60.6986 35.5653 60.9265C36.0689 62.3514 37.002 63.585 38.2359 64.4575C39.4699 65.3299 40.944 65.7983 42.4553 65.798V67.6247H46.1085V65.798C48.0462 65.798 49.9047 65.0283 51.2749 63.6581C52.6451 62.2878 53.4149 60.4294 53.4149 58.4916C53.4149 56.5539 52.6451 54.6955 51.2749 53.3252C49.9047 51.955 48.0462 51.1852 46.1085 51.1852V43.8788C47.6976 43.8788 49.0511 44.8926 49.5553 46.3137C49.6301 46.5462 49.7507 46.7613 49.9101 46.9464C50.0695 47.1314 50.2644 47.2826 50.4832 47.3911C50.7021 47.4995 50.9405 47.5629 51.1843 47.5776C51.4281 47.5923 51.6723 47.5579 51.9026 47.4766C52.1329 47.3952 52.3445 47.2685 52.525 47.1039C52.7054 46.9393 52.851 46.7402 52.9532 46.5184C53.0554 46.2965 53.112 46.0565 53.1198 45.8124C53.1275 45.5682 53.0863 45.3251 52.9984 45.0972C52.4948 43.6723 51.5617 42.4387 50.3278 41.5662C49.0938 40.6938 47.6197 40.2254 46.1085 40.2256ZM46.1085 54.8384V62.1448C47.0774 62.1448 48.0066 61.76 48.6917 61.0748C49.3768 60.3897 49.7617 59.4605 49.7617 58.4916C49.7617 57.5228 49.3768 56.5935 48.6917 55.9084C48.0066 55.2233 47.0774 54.8384 46.1085 54.8384Z" fill="url(#paint0_linear_4655_6002)"/>
<defs>
<linearGradient id="paint0_linear_4655_6002" x1="44.2851" y1="11" x2="44.2851" y2="76.7522" gradientUnits="userSpaceOnUse">
<stop stop-color="#4ED634"/>
<stop offset="1" stop-color="#9CE4FF"/>
</linearGradient>
</defs>
</svg>
