<svg width="36" height="36" viewBox="0 0 36 36" fill="none" xmlns="http://www.w3.org/2000/svg">
<g clip-path="url(#clip0_4625_5138)">
<path d="M30.7005 13.0426L31.0695 12.1936C31.7183 10.6917 32.9064 9.4875 34.3995 8.81862L35.538 8.31012C35.6761 8.24659 35.7931 8.14478 35.8752 8.01676C35.9572 7.88875 36.0008 7.73991 36.0008 7.58787C36.0008 7.43584 35.9572 7.28699 35.8752 7.15898C35.7931 7.03097 35.6761 6.92916 35.538 6.86562L34.4625 6.38712C32.9319 5.69919 31.7234 4.45044 31.086 2.89812L30.7065 1.98162C30.6508 1.83965 30.5535 1.71777 30.4275 1.63186C30.3015 1.54595 30.1525 1.5 30 1.5C29.8475 1.5 29.6985 1.54595 29.5725 1.63186C29.4465 1.71777 29.3492 1.83965 29.2935 1.98162L28.914 2.89662C28.2773 4.44924 27.0693 5.69852 25.539 6.38712L24.462 6.86712C24.3243 6.93084 24.2077 7.03263 24.126 7.16048C24.0443 7.28833 24.0009 7.43689 24.0009 7.58862C24.0009 7.74035 24.0443 7.88891 24.126 8.01676C24.2077 8.14461 24.3243 8.2464 24.462 8.31012L25.602 8.81712C27.0948 9.48667 28.2824 10.6914 28.9305 12.1936L29.2995 13.0426C29.5695 13.6636 30.429 13.6636 30.7005 13.0426ZM30 16.5016C31.005 16.5016 31.9695 16.3366 32.8725 16.0336C32.9575 16.6786 33 17.3346 33 18.0016C33 26.2861 26.2845 33.0016 18 33.0016C9.7155 33.0016 3 26.2861 3 18.0016C3 9.71712 9.7155 3.00162 18 3.00162C19.359 3.00162 20.6745 3.18162 21.9255 3.52062C21.2486 4.89298 20.9329 6.41525 21.008 7.94361C21.0832 9.47196 21.5467 10.9559 22.355 12.2552C23.1632 13.5546 24.2894 14.6264 25.6271 15.3694C26.9647 16.1124 28.4698 16.5021 30 16.5016ZM19.5 16.5016V9.00162L12 19.5016H16.5V27.0016L24 16.5016H19.5Z" fill="#4ED634"/>
</g>
<defs>
<clipPath id="clip0_4625_5138">
<rect width="36" height="36" fill="white"/>
</clipPath>
</defs>
</svg>
